<svg xmlns="http://www.w3.org/2000/svg" viewBox="272 57 528 655">
  <path d="m538.12,692.57c-23.91,0-44.35-3.28-59-6.63-53.28-12.2-96.82-37.44-129.39-75.02-31.17-35.96-49.24-76.83-53.7-121.45-3.64-36.37,2.3-73.56,17.19-107.54,11.33-25.86,41.48-37.63,67.33-26.31,25.86,11.33,37.63,41.48,26.31,67.33-5.48,12.5-11.5,32.42-9.11,56.33,3.5,34.98,22.87,57.33,29.24,64.68,27.2,31.39,61.89,39.33,74.95,42.32,21.67,4.96,64.27,9.76,106.05-13.88,10.52-5.95,42.56-24.08,57.5-62.19,9.08-23.15,10.2-49.23,3.24-75.43-3.09-11.64-10.77-26.09-26.07-54.88-17.65-33.2-33.15-57.15-38.25-65.02-22.25-34.36-46.46-69.04-68.62-99.71-.81,1.08-1.63,2.17-2.44,3.25-15.96,21.27-34.04,45.38-41.27,56.37-15.51,23.59-47.21,30.14-70.79,14.63-23.59-15.51-30.14-47.21-14.63-70.79,8.96-13.63,26.42-36.91,44.9-61.55,15.96-21.27,34.04-45.38,41.27-56.37,9.13-13.89,24.45-22.47,41.06-23.01,16.61-.58,32.45,7.04,42.46,20.31,30.42,40.33,74.86,101.05,113.87,161.31,5.69,8.79,22.98,35.51,42.69,72.57,18.39,34.59,28.51,53.63,34.61,76.63,12.59,47.38,10.21,95.45-6.87,139.01-18.71,47.69-53.14,85.99-102.33,113.82-42.68,24.15-85.18,31.19-120.22,31.19Z" fill="#2A9DB5"/>
</svg>
