<?xml version="1.0" encoding="UTF-8" standalone="no"?>
<svg
   id="Layer_1"
   data-name="Layer 1"
   viewBox="0 0 1024 1024"
   version="1.1"
   sodipodi:docname="Jila Logo  White Silka.svg"
   inkscape:version="1.3.2 (091e20e, 2023-11-25)"
   xmlns:inkscape="http://www.inkscape.org/namespaces/inkscape"
   xmlns:sodipodi="http://sodipodi.sourceforge.net/DTD/sodipodi-0.dtd"
   xmlns="http://www.w3.org/2000/svg"
   xmlns:svg="http://www.w3.org/2000/svg">
  <sodipodi:namedview
     id="namedview1"
     pagecolor="#ffffff"
     bordercolor="#000000"
     borderopacity="0.25"
     inkscape:showpageshadow="2"
     inkscape:pageopacity="0.0"
     inkscape:pagecheckerboard="0"
     inkscape:deskcolor="#d1d1d1"
     inkscape:zoom="0.41992188"
     inkscape:cx="513.1907"
     inkscape:cy="510.8093"
     inkscape:window-width="1392"
     inkscape:window-height="1212"
     inkscape:window-x="0"
     inkscape:window-y="31"
     inkscape:window-maximized="0"
     inkscape:current-layer="Layer_1" />
  <defs
     id="defs1">
    <style
       id="style1">
      .cls-1 {
        font-family: Arboria-Book, Arboria;
        font-size: 253.33px;
      }
    </style>
  </defs>
  <text
     class="cls-1"
     id="text1"
     style="font-style:normal;font-variant:normal;font-weight:normal;font-stretch:normal;font-size:253.33px;font-family:'Silka Mono';-inkscape-font-specification:'Silka Mono, Normal';font-variant-ligatures:normal;font-variant-caps:normal;font-variant-numeric:normal;font-variant-east-asian:normal;fill:#ffffff"
     x="185.5007"
     y="932.56305"
     inkscape:export-filename="text1.png"
     inkscape:export-xdpi="96"
     inkscape:export-ydpi="96"><tspan
       x="185.5007"
       y="932.56305"
       id="tspan1"
       style="font-style:normal;font-variant:normal;font-weight:normal;font-stretch:normal;font-size:253.33px;font-family:'Silka Mono';-inkscape-font-specification:'Silka Mono, Normal';font-variant-ligatures:normal;font-variant-caps:normal;font-variant-numeric:normal;font-variant-east-asian:normal;fill:#ffffff">Jila</tspan></text>
  <path
     d="m538.12,692.57c-23.91,0-44.35-3.28-59-6.63-53.28-12.2-96.82-37.44-129.39-75.02-31.17-35.96-49.24-76.83-53.7-121.45-3.64-36.37,2.3-73.56,17.19-107.54,11.33-25.86,41.48-37.63,67.33-26.31,25.86,11.33,37.63,41.48,26.31,67.33-5.48,12.5-11.5,32.42-9.11,56.33,3.5,34.98,22.87,57.33,29.24,64.68,27.2,31.39,61.89,39.33,74.95,42.32,21.67,4.96,64.27,9.76,106.05-13.88,10.52-5.95,42.56-24.08,57.5-62.19,9.08-23.15,10.2-49.23,3.24-75.43-3.09-11.64-10.77-26.09-26.07-54.88-17.65-33.2-33.15-57.15-38.25-65.02-22.25-34.36-46.46-69.04-68.62-99.71-.81,1.08-1.63,2.17-2.44,3.25-15.96,21.27-34.04,45.38-41.27,56.37-15.51,23.59-47.21,30.14-70.79,14.63-23.59-15.51-30.14-47.21-14.63-70.79,8.96-13.63,26.42-36.91,44.9-61.55,15.96-21.27,34.04-45.38,41.27-56.37,9.13-13.89,24.45-22.47,41.06-23.01,16.61-.58,32.45,7.04,42.46,20.31,30.42,40.33,74.86,101.05,113.87,161.31,5.69,8.79,22.98,35.51,42.69,72.57,18.39,34.59,28.51,53.63,34.61,76.63,12.59,47.38,10.21,95.45-6.87,139.01-18.71,47.69-53.14,85.99-102.33,113.82-42.68,24.15-85.18,31.19-120.22,31.19Z"
     id="path1"
     style="fill:#ffffff" />
</svg>
